<svg width="104" height="45" viewBox="0 0 104 45" fill="none" xmlns="http://www.w3.org/2000/svg">
<path fill-rule="evenodd" clip-rule="evenodd" d="M88.7456 24.0201L103.628 22.3256L88.7456 20.6311C77.4703 19.3473 67.8844 11.8111 63.9754 1.15733L63.5508 -1.75183e-06L63.1262 1.15733C60.9895 6.98067 57.1568 11.8726 52.2791 15.3211C47.4014 11.8726 43.5687 6.98067 41.4321 1.15733L41.0074 -2.73723e-06L40.5828 1.15733C36.6738 11.8111 27.088 19.3473 15.8126 20.6311L0.930289 22.3256L15.8126 24.0201C27.088 25.3039 36.6738 32.8401 40.5828 43.4938L41.0074 44.6512L41.4321 43.4938C43.5687 37.6705 47.4014 32.7786 52.2791 29.3301C57.1568 32.7786 60.9895 37.6705 63.1262 43.4938L63.5508 44.6512L63.9754 43.4938C67.8844 32.8401 77.4703 25.3039 88.7456 24.0201Z" fill="#2F5DD3"/>
</svg>
