<svg width="164" height="51" viewBox="0 0 164 51" fill="none" xmlns="http://www.w3.org/2000/svg">
<path fill-rule="evenodd" clip-rule="evenodd" d="M148.932 24.0201L163.814 22.3256L148.932 20.6311C137.656 19.3473 128.07 11.8111 124.161 1.15733L123.737 -1.75183e-06L123.312 1.15733C121.176 6.98067 117.343 11.8726 112.465 15.3211C107.587 11.8726 103.755 6.98067 101.618 1.15733L101.193 -2.73723e-06L100.769 1.15733C96.8599 11.8111 87.274 19.3473 75.9986 20.6311L61.1163 22.3256L75.9986 24.0201C87.274 25.3039 96.8599 32.8401 100.769 43.4938L101.193 44.6512L101.618 43.4938C103.755 37.6705 107.587 32.7786 112.465 29.3301C117.343 32.7786 121.176 37.6705 123.312 43.4938L123.737 44.6512L124.161 43.4938C128.07 32.8401 137.656 25.3039 148.932 24.0201Z" fill="#2F5DD3"/>
<mask id="path-2-outside-1_3_13" maskUnits="userSpaceOnUse" x="0.186035" y="18.2093" width="136" height="33" fill="black">
<rect fill="white" x="0.186035" y="18.2093" width="136" height="33"/>
<path d="M13.9411 48C11.2633 48 9.09946 47.4501 7.44969 46.3502C5.79993 45.2265 4.71205 43.6963 4.18604 41.7596L9.88847 38.8187C10.5579 40.8989 12.0882 41.9389 14.4791 41.9389C16.4397 41.9389 17.5276 41.3651 17.7428 40.2174C17.8862 39.4284 17.3363 38.7709 16.093 38.2449C15.9017 38.1493 15.029 37.8384 13.4749 37.3124C11.2752 36.5712 9.61351 35.567 8.48976 34.2998C7.36601 33.0326 6.99541 31.2992 7.37797 29.0995C7.78443 26.8041 8.87231 25.0229 10.6416 23.7557C12.4348 22.4646 14.5508 21.819 16.9896 21.819C19.0937 21.819 20.8988 22.3211 22.4051 23.3253C23.9354 24.3056 25.0591 25.7163 25.7764 27.5573L20.2891 30.4982C19.5001 28.7528 18.2329 27.8801 16.4875 27.8801C14.9812 27.8801 14.1205 28.418 13.9053 29.494C13.7618 30.0917 13.977 30.5938 14.5508 31.0003C15.1247 31.3828 16.2006 31.8491 17.7786 32.399C18.8785 32.7815 19.7751 33.1402 20.4685 33.4749C21.1618 33.8097 21.8791 34.2998 22.6203 34.9454C23.3854 35.567 23.8995 36.368 24.1625 37.3483C24.4255 38.3047 24.4494 39.4404 24.2342 40.7554C23.8039 43.1224 22.6801 44.9276 20.863 46.1709C19.0458 47.3903 16.7386 48 13.9411 48Z"/>
<path d="M34.7027 47.9641C31.8336 47.9641 29.61 47.0197 28.0319 45.1308C26.4539 43.242 25.8801 40.9108 26.3104 38.1373C26.7408 35.4833 27.9602 33.3076 29.9686 31.61C31.977 29.8885 34.3202 29.0277 36.998 29.0277C38.8869 29.0277 40.4769 29.4581 41.768 30.3189C43.083 31.1557 44.0633 32.2914 44.7089 33.726L39.2933 36.5593C38.7673 35.4116 37.8349 34.8378 36.4959 34.8378C35.4439 34.8378 34.5114 35.1725 33.6985 35.842C32.9095 36.5114 32.4313 37.3841 32.2639 38.4601C32.0726 39.536 32.252 40.4207 32.8019 41.114C33.3757 41.8074 34.1647 42.1541 35.1689 42.1541C36.5557 42.1541 37.6675 41.5564 38.5043 40.3609L43.2384 43.3735C42.3299 44.8798 41.1224 46.0275 39.6161 46.8165C38.1098 47.5816 36.472 47.9641 34.7027 47.9641Z"/>
<path d="M50.6447 28.0594C49.7122 28.0594 48.9591 27.7247 48.3852 27.0552C47.8114 26.3618 47.6082 25.5489 47.7756 24.6164C47.919 23.7079 48.3733 22.9188 49.1384 22.2494C49.9035 21.556 50.7762 21.2093 51.7565 21.2093C52.7129 21.2093 53.466 21.544 54.016 22.2135C54.5898 22.883 54.793 23.6839 54.6256 24.6164C54.4822 25.5728 54.0279 26.3857 53.2628 27.0552C52.4977 27.7247 51.625 28.0594 50.6447 28.0594ZM44.1891 47.462L47.3452 29.5298H53.2987L50.1426 47.462H44.1891Z"/>
<path d="M65.0171 29.0277C67.7189 29.0277 69.8349 29.9483 71.3651 31.7893C72.8953 33.6064 73.4213 35.83 72.9431 38.4601C72.8475 39.1774 72.6442 39.9186 72.3334 40.6837H60.0319C60.3667 42.1422 61.5143 42.8714 63.4749 42.8714C64.9095 42.8714 66.093 42.441 67.0255 41.5803L70.8271 45.0591C68.747 46.9958 66.1408 47.9641 63.0087 47.9641C59.9004 47.9641 57.5573 47.0197 55.9793 45.1308C54.4251 43.242 53.8752 40.9108 54.3295 38.1373C54.7599 35.5072 55.9793 33.3315 57.9877 31.61C59.9961 29.8885 62.3392 29.0277 65.0171 29.0277ZM60.7492 36.5234H67.5276C67.408 34.8736 66.4636 34.0488 64.6943 34.0488C62.925 34.0488 61.61 34.8736 60.7492 36.5234Z"/>
<path d="M87.8422 29.0277C89.7789 29.0277 91.2613 29.7092 92.2894 31.072C93.3414 32.4109 93.6642 34.2998 93.2578 36.7386L91.3569 47.462H85.4035L87.1608 37.4917C87.3043 36.5354 87.1728 35.83 86.7663 35.3757C86.3598 34.8975 85.7501 34.6585 84.9372 34.6585C84.0286 34.6585 83.2635 34.9334 82.6419 35.4833C82.0442 36.0333 81.6497 36.8462 81.4584 37.9221V37.8862L79.7728 47.462H73.8193L76.9753 29.5298H82.9288L82.606 31.3589C83.9689 29.8048 85.7143 29.0277 87.8422 29.0277Z"/>
<path d="M103.7 47.9641C100.83 47.9641 98.6069 47.0197 97.0288 45.1308C95.4508 43.242 94.877 40.9108 95.3074 38.1373C95.7377 35.4833 96.9571 33.3076 98.9655 31.61C100.974 29.8885 103.317 29.0277 105.995 29.0277C107.884 29.0277 109.474 29.4581 110.765 30.3189C112.08 31.1557 113.06 32.2914 113.706 33.726L108.29 36.5593C107.764 35.4116 106.832 34.8378 105.493 34.8378C104.441 34.8378 103.508 35.1725 102.695 35.842C101.906 36.5114 101.428 37.3841 101.261 38.4601C101.07 39.536 101.249 40.4207 101.799 41.114C102.373 41.8074 103.162 42.1541 104.166 42.1541C105.553 42.1541 106.664 41.5564 107.501 40.3609L112.235 43.3735C111.327 44.8798 110.119 46.0275 108.613 46.8165C107.107 47.5816 105.469 47.9641 103.7 47.9641Z"/>
<path d="M124.558 29.0277C127.259 29.0277 129.375 29.9483 130.906 31.7893C132.436 33.6064 132.962 35.83 132.484 38.4601C132.388 39.1774 132.185 39.9186 131.874 40.6837H119.572C119.907 42.1422 121.055 42.8714 123.015 42.8714C124.45 42.8714 125.633 42.441 126.566 41.5803L130.368 45.0591C128.287 46.9958 125.681 47.9641 122.549 47.9641C119.441 47.9641 117.098 47.0197 115.52 45.1308C113.966 43.242 113.416 40.9108 113.87 38.1373C114.3 35.5072 115.52 33.3315 117.528 31.61C119.537 29.8885 121.88 29.0277 124.558 29.0277ZM120.29 36.5234H127.068C126.949 34.8736 126.004 34.0488 124.235 34.0488C122.465 34.0488 121.15 34.8736 120.29 36.5234Z"/>
</mask>
<path d="M13.9411 48C11.2633 48 9.09946 47.4501 7.44969 46.3502C5.79993 45.2265 4.71205 43.6963 4.18604 41.7596L9.88847 38.8187C10.5579 40.8989 12.0882 41.9389 14.4791 41.9389C16.4397 41.9389 17.5276 41.3651 17.7428 40.2174C17.8862 39.4284 17.3363 38.7709 16.093 38.2449C15.9017 38.1493 15.029 37.8384 13.4749 37.3124C11.2752 36.5712 9.61351 35.567 8.48976 34.2998C7.36601 33.0326 6.99541 31.2992 7.37797 29.0995C7.78443 26.8041 8.87231 25.0229 10.6416 23.7557C12.4348 22.4646 14.5508 21.819 16.9896 21.819C19.0937 21.819 20.8988 22.3211 22.4051 23.3253C23.9354 24.3056 25.0591 25.7163 25.7764 27.5573L20.2891 30.4982C19.5001 28.7528 18.2329 27.8801 16.4875 27.8801C14.9812 27.8801 14.1205 28.418 13.9053 29.494C13.7618 30.0917 13.977 30.5938 14.5508 31.0003C15.1247 31.3828 16.2006 31.8491 17.7786 32.399C18.8785 32.7815 19.7751 33.1402 20.4685 33.4749C21.1618 33.8097 21.8791 34.2998 22.6203 34.9454C23.3854 35.567 23.8995 36.368 24.1625 37.3483C24.4255 38.3047 24.4494 39.4404 24.2342 40.7554C23.8039 43.1224 22.6801 44.9276 20.863 46.1709C19.0458 47.3903 16.7386 48 13.9411 48Z" fill="#242A38"/>
<path d="M34.7027 47.9641C31.8336 47.9641 29.61 47.0197 28.0319 45.1308C26.4539 43.242 25.8801 40.9108 26.3104 38.1373C26.7408 35.4833 27.9602 33.3076 29.9686 31.61C31.977 29.8885 34.3202 29.0277 36.998 29.0277C38.8869 29.0277 40.4769 29.4581 41.768 30.3189C43.083 31.1557 44.0633 32.2914 44.7089 33.726L39.2933 36.5593C38.7673 35.4116 37.8349 34.8378 36.4959 34.8378C35.4439 34.8378 34.5114 35.1725 33.6985 35.842C32.9095 36.5114 32.4313 37.3841 32.2639 38.4601C32.0726 39.536 32.252 40.4207 32.8019 41.114C33.3757 41.8074 34.1647 42.1541 35.1689 42.1541C36.5557 42.1541 37.6675 41.5564 38.5043 40.3609L43.2384 43.3735C42.3299 44.8798 41.1224 46.0275 39.6161 46.8165C38.1098 47.5816 36.472 47.9641 34.7027 47.9641Z" fill="#242A38"/>
<path d="M50.6447 28.0594C49.7122 28.0594 48.9591 27.7247 48.3852 27.0552C47.8114 26.3618 47.6082 25.5489 47.7756 24.6164C47.919 23.7079 48.3733 22.9188 49.1384 22.2494C49.9035 21.556 50.7762 21.2093 51.7565 21.2093C52.7129 21.2093 53.466 21.544 54.016 22.2135C54.5898 22.883 54.793 23.6839 54.6256 24.6164C54.4822 25.5728 54.0279 26.3857 53.2628 27.0552C52.4977 27.7247 51.625 28.0594 50.6447 28.0594ZM44.1891 47.462L47.3452 29.5298H53.2987L50.1426 47.462H44.1891Z" fill="#242A38"/>
<path d="M65.0171 29.0277C67.7189 29.0277 69.8349 29.9483 71.3651 31.7893C72.8953 33.6064 73.4213 35.83 72.9431 38.4601C72.8475 39.1774 72.6442 39.9186 72.3334 40.6837H60.0319C60.3667 42.1422 61.5143 42.8714 63.4749 42.8714C64.9095 42.8714 66.093 42.441 67.0255 41.5803L70.8271 45.0591C68.747 46.9958 66.1408 47.9641 63.0087 47.9641C59.9004 47.9641 57.5573 47.0197 55.9793 45.1308C54.4251 43.242 53.8752 40.9108 54.3295 38.1373C54.7599 35.5072 55.9793 33.3315 57.9877 31.61C59.9961 29.8885 62.3392 29.0277 65.0171 29.0277ZM60.7492 36.5234H67.5276C67.408 34.8736 66.4636 34.0488 64.6943 34.0488C62.925 34.0488 61.61 34.8736 60.7492 36.5234Z" fill="#242A38"/>
<path d="M87.8422 29.0277C89.7789 29.0277 91.2613 29.7092 92.2894 31.072C93.3414 32.4109 93.6642 34.2998 93.2578 36.7386L91.3569 47.462H85.4035L87.1608 37.4917C87.3043 36.5354 87.1728 35.83 86.7663 35.3757C86.3598 34.8975 85.7501 34.6585 84.9372 34.6585C84.0286 34.6585 83.2635 34.9334 82.6419 35.4833C82.0442 36.0333 81.6497 36.8462 81.4584 37.9221V37.8862L79.7728 47.462H73.8193L76.9753 29.5298H82.9288L82.606 31.3589C83.9689 29.8048 85.7143 29.0277 87.8422 29.0277Z" fill="#242A38"/>
<path d="M103.7 47.9641C100.83 47.9641 98.6069 47.0197 97.0288 45.1308C95.4508 43.242 94.877 40.9108 95.3074 38.1373C95.7377 35.4833 96.9571 33.3076 98.9655 31.61C100.974 29.8885 103.317 29.0277 105.995 29.0277C107.884 29.0277 109.474 29.4581 110.765 30.3189C112.08 31.1557 113.06 32.2914 113.706 33.726L108.29 36.5593C107.764 35.4116 106.832 34.8378 105.493 34.8378C104.441 34.8378 103.508 35.1725 102.695 35.842C101.906 36.5114 101.428 37.3841 101.261 38.4601C101.07 39.536 101.249 40.4207 101.799 41.114C102.373 41.8074 103.162 42.1541 104.166 42.1541C105.553 42.1541 106.664 41.5564 107.501 40.3609L112.235 43.3735C111.327 44.8798 110.119 46.0275 108.613 46.8165C107.107 47.5816 105.469 47.9641 103.7 47.9641Z" fill="#242A38"/>
<path d="M124.558 29.0277C127.259 29.0277 129.375 29.9483 130.906 31.7893C132.436 33.6064 132.962 35.83 132.484 38.4601C132.388 39.1774 132.185 39.9186 131.874 40.6837H119.572C119.907 42.1422 121.055 42.8714 123.015 42.8714C124.45 42.8714 125.633 42.441 126.566 41.5803L130.368 45.0591C128.287 46.9958 125.681 47.9641 122.549 47.9641C119.441 47.9641 117.098 47.0197 115.52 45.1308C113.966 43.242 113.416 40.9108 113.87 38.1373C114.3 35.5072 115.52 33.3315 117.528 31.61C119.537 29.8885 121.88 29.0277 124.558 29.0277ZM120.29 36.5234H127.068C126.949 34.8736 126.004 34.0488 124.235 34.0488C122.465 34.0488 121.15 34.8736 120.29 36.5234Z" fill="#242A38"/>
<path d="M13.9411 48C11.2633 48 9.09946 47.4501 7.44969 46.3502C5.79993 45.2265 4.71205 43.6963 4.18604 41.7596L9.88847 38.8187C10.5579 40.8989 12.0882 41.9389 14.4791 41.9389C16.4397 41.9389 17.5276 41.3651 17.7428 40.2174C17.8862 39.4284 17.3363 38.7709 16.093 38.2449C15.9017 38.1493 15.029 37.8384 13.4749 37.3124C11.2752 36.5712 9.61351 35.567 8.48976 34.2998C7.36601 33.0326 6.99541 31.2992 7.37797 29.0995C7.78443 26.8041 8.87231 25.0229 10.6416 23.7557C12.4348 22.4646 14.5508 21.819 16.9896 21.819C19.0937 21.819 20.8988 22.3211 22.4051 23.3253C23.9354 24.3056 25.0591 25.7163 25.7764 27.5573L20.2891 30.4982C19.5001 28.7528 18.2329 27.8801 16.4875 27.8801C14.9812 27.8801 14.1205 28.418 13.9053 29.494C13.7618 30.0917 13.977 30.5938 14.5508 31.0003C15.1247 31.3828 16.2006 31.8491 17.7786 32.399C18.8785 32.7815 19.7751 33.1402 20.4685 33.4749C21.1618 33.8097 21.8791 34.2998 22.6203 34.9454C23.3854 35.567 23.8995 36.368 24.1625 37.3483C24.4255 38.3047 24.4494 39.4404 24.2342 40.7554C23.8039 43.1224 22.6801 44.9276 20.863 46.1709C19.0458 47.3903 16.7386 48 13.9411 48Z" stroke="white" stroke-width="6" mask="url(#path-2-outside-1_3_13)"/>
<path d="M34.7027 47.9641C31.8336 47.9641 29.61 47.0197 28.0319 45.1308C26.4539 43.242 25.8801 40.9108 26.3104 38.1373C26.7408 35.4833 27.9602 33.3076 29.9686 31.61C31.977 29.8885 34.3202 29.0277 36.998 29.0277C38.8869 29.0277 40.4769 29.4581 41.768 30.3189C43.083 31.1557 44.0633 32.2914 44.7089 33.726L39.2933 36.5593C38.7673 35.4116 37.8349 34.8378 36.4959 34.8378C35.4439 34.8378 34.5114 35.1725 33.6985 35.842C32.9095 36.5114 32.4313 37.3841 32.2639 38.4601C32.0726 39.536 32.252 40.4207 32.8019 41.114C33.3757 41.8074 34.1647 42.1541 35.1689 42.1541C36.5557 42.1541 37.6675 41.5564 38.5043 40.3609L43.2384 43.3735C42.3299 44.8798 41.1224 46.0275 39.6161 46.8165C38.1098 47.5816 36.472 47.9641 34.7027 47.9641Z" stroke="white" stroke-width="6" mask="url(#path-2-outside-1_3_13)"/>
<path d="M50.6447 28.0594C49.7122 28.0594 48.9591 27.7247 48.3852 27.0552C47.8114 26.3618 47.6082 25.5489 47.7756 24.6164C47.919 23.7079 48.3733 22.9188 49.1384 22.2494C49.9035 21.556 50.7762 21.2093 51.7565 21.2093C52.7129 21.2093 53.466 21.544 54.016 22.2135C54.5898 22.883 54.793 23.6839 54.6256 24.6164C54.4822 25.5728 54.0279 26.3857 53.2628 27.0552C52.4977 27.7247 51.625 28.0594 50.6447 28.0594ZM44.1891 47.462L47.3452 29.5298H53.2987L50.1426 47.462H44.1891Z" stroke="white" stroke-width="6" mask="url(#path-2-outside-1_3_13)"/>
<path d="M65.0171 29.0277C67.7189 29.0277 69.8349 29.9483 71.3651 31.7893C72.8953 33.6064 73.4213 35.83 72.9431 38.4601C72.8475 39.1774 72.6442 39.9186 72.3334 40.6837H60.0319C60.3667 42.1422 61.5143 42.8714 63.4749 42.8714C64.9095 42.8714 66.093 42.441 67.0255 41.5803L70.8271 45.0591C68.747 46.9958 66.1408 47.9641 63.0087 47.9641C59.9004 47.9641 57.5573 47.0197 55.9793 45.1308C54.4251 43.242 53.8752 40.9108 54.3295 38.1373C54.7599 35.5072 55.9793 33.3315 57.9877 31.61C59.9961 29.8885 62.3392 29.0277 65.0171 29.0277ZM60.7492 36.5234H67.5276C67.408 34.8736 66.4636 34.0488 64.6943 34.0488C62.925 34.0488 61.61 34.8736 60.7492 36.5234Z" stroke="white" stroke-width="6" mask="url(#path-2-outside-1_3_13)"/>
<path d="M87.8422 29.0277C89.7789 29.0277 91.2613 29.7092 92.2894 31.072C93.3414 32.4109 93.6642 34.2998 93.2578 36.7386L91.3569 47.462H85.4035L87.1608 37.4917C87.3043 36.5354 87.1728 35.83 86.7663 35.3757C86.3598 34.8975 85.7501 34.6585 84.9372 34.6585C84.0286 34.6585 83.2635 34.9334 82.6419 35.4833C82.0442 36.0333 81.6497 36.8462 81.4584 37.9221V37.8862L79.7728 47.462H73.8193L76.9753 29.5298H82.9288L82.606 31.3589C83.9689 29.8048 85.7143 29.0277 87.8422 29.0277Z" stroke="white" stroke-width="6" mask="url(#path-2-outside-1_3_13)"/>
<path d="M103.7 47.9641C100.83 47.9641 98.6069 47.0197 97.0288 45.1308C95.4508 43.242 94.877 40.9108 95.3074 38.1373C95.7377 35.4833 96.9571 33.3076 98.9655 31.61C100.974 29.8885 103.317 29.0277 105.995 29.0277C107.884 29.0277 109.474 29.4581 110.765 30.3189C112.08 31.1557 113.06 32.2914 113.706 33.726L108.29 36.5593C107.764 35.4116 106.832 34.8378 105.493 34.8378C104.441 34.8378 103.508 35.1725 102.695 35.842C101.906 36.5114 101.428 37.3841 101.261 38.4601C101.07 39.536 101.249 40.4207 101.799 41.114C102.373 41.8074 103.162 42.1541 104.166 42.1541C105.553 42.1541 106.664 41.5564 107.501 40.3609L112.235 43.3735C111.327 44.8798 110.119 46.0275 108.613 46.8165C107.107 47.5816 105.469 47.9641 103.7 47.9641Z" stroke="white" stroke-width="6" mask="url(#path-2-outside-1_3_13)"/>
<path d="M124.558 29.0277C127.259 29.0277 129.375 29.9483 130.906 31.7893C132.436 33.6064 132.962 35.83 132.484 38.4601C132.388 39.1774 132.185 39.9186 131.874 40.6837H119.572C119.907 42.1422 121.055 42.8714 123.015 42.8714C124.45 42.8714 125.633 42.441 126.566 41.5803L130.368 45.0591C128.287 46.9958 125.681 47.9641 122.549 47.9641C119.441 47.9641 117.098 47.0197 115.52 45.1308C113.966 43.242 113.416 40.9108 113.87 38.1373C114.3 35.5072 115.52 33.3315 117.528 31.61C119.537 29.8885 121.88 29.0277 124.558 29.0277ZM120.29 36.5234H127.068C126.949 34.8736 126.004 34.0488 124.235 34.0488C122.465 34.0488 121.15 34.8736 120.29 36.5234Z" stroke="white" stroke-width="6" mask="url(#path-2-outside-1_3_13)"/>
</svg>
