<svg width="136" height="33" viewBox="0 0 136 33" fill="none" xmlns="http://www.w3.org/2000/svg">
<mask id="path-1-outside-1_3_17" maskUnits="userSpaceOnUse" x="0" y="0.209305" width="136" height="33" fill="black">
<rect fill="white" y="0.209305" width="136" height="33"/>
<path d="M13.7551 30C11.0772 30 8.91342 29.4501 7.26366 28.3502C5.6139 27.2265 4.52601 25.6963 4 23.7596L9.70244 20.8187C10.3719 22.8989 11.9021 23.9389 14.2931 23.9389C16.2537 23.9389 17.3416 23.3651 17.5567 22.2174C17.7002 21.4284 17.1503 20.7709 15.907 20.2449C15.7157 20.1493 14.843 19.8384 13.2889 19.3124C11.0892 18.5712 9.42748 17.567 8.30373 16.2998C7.17998 15.0326 6.80938 13.2992 7.19193 11.0995C7.59839 8.80415 8.68628 7.02289 10.4556 5.75568C12.2488 4.46456 14.3648 3.819 16.8036 3.819C18.9076 3.819 20.7128 4.3211 22.2191 5.3253C23.7493 6.3056 24.8731 7.71626 25.5904 9.5573L20.1031 12.4982C19.3141 10.7528 18.0469 9.88008 16.3015 9.88008C14.7952 9.88008 13.9344 10.418 13.7192 11.494C13.5758 12.0917 13.791 12.5938 14.3648 13.0003C14.9386 13.3828 16.0146 13.8491 17.5926 14.399C18.6924 14.7815 19.5891 15.1402 20.2824 15.4749C20.9758 15.8097 21.6931 16.2998 22.4343 16.9454C23.1994 17.567 23.7135 18.368 23.9765 19.3483C24.2395 20.3047 24.2634 21.4404 24.0482 22.7554C23.6178 25.1224 22.4941 26.9276 20.6769 28.1709C18.8598 29.3903 16.5525 30 13.7551 30Z"/>
<path d="M34.5167 29.9641C31.6475 29.9641 29.4239 29.0197 27.8459 27.1308C26.2679 25.242 25.694 22.9108 26.1244 20.1373C26.5548 17.4833 27.7742 15.3076 29.7826 13.61C31.791 11.8885 34.1341 11.0277 36.812 11.0277C38.7008 11.0277 40.2908 11.4581 41.582 12.3189C42.897 13.1557 43.8773 14.2914 44.5228 15.726L39.1073 18.5593C38.5813 17.4116 37.6488 16.8378 36.3099 16.8378C35.2579 16.8378 34.3254 17.1725 33.5125 17.842C32.7234 18.5114 32.2453 19.3841 32.0779 20.4601C31.8866 21.536 32.0659 22.4207 32.6159 23.114C33.1897 23.8074 33.9787 24.1541 34.9829 24.1541C36.3697 24.1541 37.4815 23.5564 38.3183 22.3609L43.0524 25.3735C42.1438 26.8798 40.9364 28.0275 39.4301 28.8165C37.9238 29.5816 36.286 29.9641 34.5167 29.9641Z"/>
<path d="M50.4587 10.0594C49.5262 10.0594 48.773 9.72467 48.1992 9.0552C47.6254 8.36182 47.4221 7.5489 47.5895 6.61642C47.733 5.70786 48.1873 4.91884 48.9524 4.24937C49.7175 3.55599 50.5902 3.2093 51.5705 3.2093C52.5268 3.2093 53.28 3.54404 53.8299 4.21351C54.4037 4.88298 54.607 5.68395 54.4396 6.61642C54.2962 7.57281 53.8419 8.38573 53.0768 9.0552C52.3117 9.72467 51.439 10.0594 50.4587 10.0594ZM44.0031 29.462L47.1591 11.5298H53.1126L49.9566 29.462H44.0031Z"/>
<path d="M64.831 11.0277C67.5328 11.0277 69.6488 11.9483 71.179 13.7893C72.7093 15.6064 73.2353 17.83 72.7571 20.4601C72.6614 21.1774 72.4582 21.9186 72.1474 22.6837H59.8459C60.1806 24.1422 61.3283 24.8714 63.2889 24.8714C64.7234 24.8714 65.907 24.441 66.8394 23.5803L70.6411 27.0591C68.5609 28.9958 65.9548 29.9641 62.8226 29.9641C59.7144 29.9641 57.3712 29.0197 55.7932 27.1308C54.2391 25.242 53.6892 22.9108 54.1435 20.1373C54.5738 17.5072 55.7932 15.3315 57.8016 13.61C59.81 11.8885 62.1532 11.0277 64.831 11.0277ZM60.5632 18.5234H67.3415C67.222 16.8736 66.2776 16.0488 64.5083 16.0488C62.739 16.0488 61.4239 16.8736 60.5632 18.5234Z"/>
<path d="M87.6562 11.0277C89.5929 11.0277 91.0753 11.7092 92.1034 13.072C93.1554 14.4109 93.4782 16.2998 93.0717 18.7386L91.1709 29.462H85.2174L86.9748 19.4917C87.1182 18.5354 86.9867 17.83 86.5803 17.3757C86.1738 16.8975 85.5641 16.6585 84.7512 16.6585C83.8426 16.6585 83.0775 16.9334 82.4559 17.4833C81.8581 18.0333 81.4636 18.8462 81.2723 19.9221V19.8862L79.5867 29.462H73.6332L76.7893 11.5298H82.7428L82.42 13.3589C83.7828 11.8048 85.5282 11.0277 87.6562 11.0277Z"/>
<path d="M103.514 29.9641C100.644 29.9641 98.4208 29.0197 96.8428 27.1308C95.2648 25.242 94.6909 22.9108 95.1213 20.1373C95.5517 17.4833 96.7711 15.3076 98.7795 13.61C100.788 11.8885 103.131 11.0277 105.809 11.0277C107.698 11.0277 109.288 11.4581 110.579 12.3189C111.894 13.1557 112.874 14.2914 113.52 15.726L108.104 18.5593C107.578 17.4116 106.646 16.8378 105.307 16.8378C104.255 16.8378 103.322 17.1725 102.509 17.842C101.72 18.5114 101.242 19.3841 101.075 20.4601C100.884 21.536 101.063 22.4207 101.613 23.114C102.187 23.8074 102.976 24.1541 103.98 24.1541C105.367 24.1541 106.478 23.5564 107.315 22.3609L112.049 25.3735C111.141 26.8798 109.933 28.0275 108.427 28.8165C106.921 29.5816 105.283 29.9641 103.514 29.9641Z"/>
<path d="M124.372 11.0277C127.073 11.0277 129.189 11.9483 130.72 13.7893C132.25 15.6064 132.776 17.83 132.298 20.4601C132.202 21.1774 131.999 21.9186 131.688 22.6837H119.386C119.721 24.1422 120.869 24.8714 122.829 24.8714C124.264 24.8714 125.447 24.441 126.38 23.5803L130.182 27.0591C128.101 28.9958 125.495 29.9641 122.363 29.9641C119.255 29.9641 116.912 29.0197 115.334 27.1308C113.78 25.242 113.23 22.9108 113.684 20.1373C114.114 17.5072 115.334 15.3315 117.342 13.61C119.351 11.8885 121.694 11.0277 124.372 11.0277ZM120.104 18.5234H126.882C126.762 16.8736 125.818 16.0488 124.049 16.0488C122.279 16.0488 120.964 16.8736 120.104 18.5234Z"/>
</mask>
<path d="M13.7551 30C11.0772 30 8.91342 29.4501 7.26366 28.3502C5.6139 27.2265 4.52601 25.6963 4 23.7596L9.70244 20.8187C10.3719 22.8989 11.9021 23.9389 14.2931 23.9389C16.2537 23.9389 17.3416 23.3651 17.5567 22.2174C17.7002 21.4284 17.1503 20.7709 15.907 20.2449C15.7157 20.1493 14.843 19.8384 13.2889 19.3124C11.0892 18.5712 9.42748 17.567 8.30373 16.2998C7.17998 15.0326 6.80938 13.2992 7.19193 11.0995C7.59839 8.80415 8.68628 7.02289 10.4556 5.75568C12.2488 4.46456 14.3648 3.819 16.8036 3.819C18.9076 3.819 20.7128 4.3211 22.2191 5.3253C23.7493 6.3056 24.8731 7.71626 25.5904 9.5573L20.1031 12.4982C19.3141 10.7528 18.0469 9.88008 16.3015 9.88008C14.7952 9.88008 13.9344 10.418 13.7192 11.494C13.5758 12.0917 13.791 12.5938 14.3648 13.0003C14.9386 13.3828 16.0146 13.8491 17.5926 14.399C18.6924 14.7815 19.5891 15.1402 20.2824 15.4749C20.9758 15.8097 21.6931 16.2998 22.4343 16.9454C23.1994 17.567 23.7135 18.368 23.9765 19.3483C24.2395 20.3047 24.2634 21.4404 24.0482 22.7554C23.6178 25.1224 22.4941 26.9276 20.6769 28.1709C18.8598 29.3903 16.5525 30 13.7551 30Z" fill="#242A38"/>
<path d="M34.5167 29.9641C31.6475 29.9641 29.4239 29.0197 27.8459 27.1308C26.2679 25.242 25.694 22.9108 26.1244 20.1373C26.5548 17.4833 27.7742 15.3076 29.7826 13.61C31.791 11.8885 34.1341 11.0277 36.812 11.0277C38.7008 11.0277 40.2908 11.4581 41.582 12.3189C42.897 13.1557 43.8773 14.2914 44.5228 15.726L39.1073 18.5593C38.5813 17.4116 37.6488 16.8378 36.3099 16.8378C35.2579 16.8378 34.3254 17.1725 33.5125 17.842C32.7234 18.5114 32.2453 19.3841 32.0779 20.4601C31.8866 21.536 32.0659 22.4207 32.6159 23.114C33.1897 23.8074 33.9787 24.1541 34.9829 24.1541C36.3697 24.1541 37.4815 23.5564 38.3183 22.3609L43.0524 25.3735C42.1438 26.8798 40.9364 28.0275 39.4301 28.8165C37.9238 29.5816 36.286 29.9641 34.5167 29.9641Z" fill="#242A38"/>
<path d="M50.4587 10.0594C49.5262 10.0594 48.773 9.72467 48.1992 9.0552C47.6254 8.36182 47.4221 7.5489 47.5895 6.61642C47.733 5.70786 48.1873 4.91884 48.9524 4.24937C49.7175 3.55599 50.5902 3.2093 51.5705 3.2093C52.5268 3.2093 53.28 3.54404 53.8299 4.21351C54.4037 4.88298 54.607 5.68395 54.4396 6.61642C54.2962 7.57281 53.8419 8.38573 53.0768 9.0552C52.3117 9.72467 51.439 10.0594 50.4587 10.0594ZM44.0031 29.462L47.1591 11.5298H53.1126L49.9566 29.462H44.0031Z" fill="#242A38"/>
<path d="M64.831 11.0277C67.5328 11.0277 69.6488 11.9483 71.179 13.7893C72.7093 15.6064 73.2353 17.83 72.7571 20.4601C72.6614 21.1774 72.4582 21.9186 72.1474 22.6837H59.8459C60.1806 24.1422 61.3283 24.8714 63.2889 24.8714C64.7234 24.8714 65.907 24.441 66.8394 23.5803L70.6411 27.0591C68.5609 28.9958 65.9548 29.9641 62.8226 29.9641C59.7144 29.9641 57.3712 29.0197 55.7932 27.1308C54.2391 25.242 53.6892 22.9108 54.1435 20.1373C54.5738 17.5072 55.7932 15.3315 57.8016 13.61C59.81 11.8885 62.1532 11.0277 64.831 11.0277ZM60.5632 18.5234H67.3415C67.222 16.8736 66.2776 16.0488 64.5083 16.0488C62.739 16.0488 61.4239 16.8736 60.5632 18.5234Z" fill="#242A38"/>
<path d="M87.6562 11.0277C89.5929 11.0277 91.0753 11.7092 92.1034 13.072C93.1554 14.4109 93.4782 16.2998 93.0717 18.7386L91.1709 29.462H85.2174L86.9748 19.4917C87.1182 18.5354 86.9867 17.83 86.5803 17.3757C86.1738 16.8975 85.5641 16.6585 84.7512 16.6585C83.8426 16.6585 83.0775 16.9334 82.4559 17.4833C81.8581 18.0333 81.4636 18.8462 81.2723 19.9221V19.8862L79.5867 29.462H73.6332L76.7893 11.5298H82.7428L82.42 13.3589C83.7828 11.8048 85.5282 11.0277 87.6562 11.0277Z" fill="#242A38"/>
<path d="M103.514 29.9641C100.644 29.9641 98.4208 29.0197 96.8428 27.1308C95.2648 25.242 94.6909 22.9108 95.1213 20.1373C95.5517 17.4833 96.7711 15.3076 98.7795 13.61C100.788 11.8885 103.131 11.0277 105.809 11.0277C107.698 11.0277 109.288 11.4581 110.579 12.3189C111.894 13.1557 112.874 14.2914 113.52 15.726L108.104 18.5593C107.578 17.4116 106.646 16.8378 105.307 16.8378C104.255 16.8378 103.322 17.1725 102.509 17.842C101.72 18.5114 101.242 19.3841 101.075 20.4601C100.884 21.536 101.063 22.4207 101.613 23.114C102.187 23.8074 102.976 24.1541 103.98 24.1541C105.367 24.1541 106.478 23.5564 107.315 22.3609L112.049 25.3735C111.141 26.8798 109.933 28.0275 108.427 28.8165C106.921 29.5816 105.283 29.9641 103.514 29.9641Z" fill="#242A38"/>
<path d="M124.372 11.0277C127.073 11.0277 129.189 11.9483 130.72 13.7893C132.25 15.6064 132.776 17.83 132.298 20.4601C132.202 21.1774 131.999 21.9186 131.688 22.6837H119.386C119.721 24.1422 120.869 24.8714 122.829 24.8714C124.264 24.8714 125.447 24.441 126.38 23.5803L130.182 27.0591C128.101 28.9958 125.495 29.9641 122.363 29.9641C119.255 29.9641 116.912 29.0197 115.334 27.1308C113.78 25.242 113.23 22.9108 113.684 20.1373C114.114 17.5072 115.334 15.3315 117.342 13.61C119.351 11.8885 121.694 11.0277 124.372 11.0277ZM120.104 18.5234H126.882C126.762 16.8736 125.818 16.0488 124.049 16.0488C122.279 16.0488 120.964 16.8736 120.104 18.5234Z" fill="#242A38"/>
<path d="M13.7551 30C11.0772 30 8.91342 29.4501 7.26366 28.3502C5.6139 27.2265 4.52601 25.6963 4 23.7596L9.70244 20.8187C10.3719 22.8989 11.9021 23.9389 14.2931 23.9389C16.2537 23.9389 17.3416 23.3651 17.5567 22.2174C17.7002 21.4284 17.1503 20.7709 15.907 20.2449C15.7157 20.1493 14.843 19.8384 13.2889 19.3124C11.0892 18.5712 9.42748 17.567 8.30373 16.2998C7.17998 15.0326 6.80938 13.2992 7.19193 11.0995C7.59839 8.80415 8.68628 7.02289 10.4556 5.75568C12.2488 4.46456 14.3648 3.819 16.8036 3.819C18.9076 3.819 20.7128 4.3211 22.2191 5.3253C23.7493 6.3056 24.8731 7.71626 25.5904 9.5573L20.1031 12.4982C19.3141 10.7528 18.0469 9.88008 16.3015 9.88008C14.7952 9.88008 13.9344 10.418 13.7192 11.494C13.5758 12.0917 13.791 12.5938 14.3648 13.0003C14.9386 13.3828 16.0146 13.8491 17.5926 14.399C18.6924 14.7815 19.5891 15.1402 20.2824 15.4749C20.9758 15.8097 21.6931 16.2998 22.4343 16.9454C23.1994 17.567 23.7135 18.368 23.9765 19.3483C24.2395 20.3047 24.2634 21.4404 24.0482 22.7554C23.6178 25.1224 22.4941 26.9276 20.6769 28.1709C18.8598 29.3903 16.5525 30 13.7551 30Z" stroke="white" stroke-width="6" mask="url(#path-1-outside-1_3_17)"/>
<path d="M34.5167 29.9641C31.6475 29.9641 29.4239 29.0197 27.8459 27.1308C26.2679 25.242 25.694 22.9108 26.1244 20.1373C26.5548 17.4833 27.7742 15.3076 29.7826 13.61C31.791 11.8885 34.1341 11.0277 36.812 11.0277C38.7008 11.0277 40.2908 11.4581 41.582 12.3189C42.897 13.1557 43.8773 14.2914 44.5228 15.726L39.1073 18.5593C38.5813 17.4116 37.6488 16.8378 36.3099 16.8378C35.2579 16.8378 34.3254 17.1725 33.5125 17.842C32.7234 18.5114 32.2453 19.3841 32.0779 20.4601C31.8866 21.536 32.0659 22.4207 32.6159 23.114C33.1897 23.8074 33.9787 24.1541 34.9829 24.1541C36.3697 24.1541 37.4815 23.5564 38.3183 22.3609L43.0524 25.3735C42.1438 26.8798 40.9364 28.0275 39.4301 28.8165C37.9238 29.5816 36.286 29.9641 34.5167 29.9641Z" stroke="white" stroke-width="6" mask="url(#path-1-outside-1_3_17)"/>
<path d="M50.4587 10.0594C49.5262 10.0594 48.773 9.72467 48.1992 9.0552C47.6254 8.36182 47.4221 7.5489 47.5895 6.61642C47.733 5.70786 48.1873 4.91884 48.9524 4.24937C49.7175 3.55599 50.5902 3.2093 51.5705 3.2093C52.5268 3.2093 53.28 3.54404 53.8299 4.21351C54.4037 4.88298 54.607 5.68395 54.4396 6.61642C54.2962 7.57281 53.8419 8.38573 53.0768 9.0552C52.3117 9.72467 51.439 10.0594 50.4587 10.0594ZM44.0031 29.462L47.1591 11.5298H53.1126L49.9566 29.462H44.0031Z" stroke="white" stroke-width="6" mask="url(#path-1-outside-1_3_17)"/>
<path d="M64.831 11.0277C67.5328 11.0277 69.6488 11.9483 71.179 13.7893C72.7093 15.6064 73.2353 17.83 72.7571 20.4601C72.6614 21.1774 72.4582 21.9186 72.1474 22.6837H59.8459C60.1806 24.1422 61.3283 24.8714 63.2889 24.8714C64.7234 24.8714 65.907 24.441 66.8394 23.5803L70.6411 27.0591C68.5609 28.9958 65.9548 29.9641 62.8226 29.9641C59.7144 29.9641 57.3712 29.0197 55.7932 27.1308C54.2391 25.242 53.6892 22.9108 54.1435 20.1373C54.5738 17.5072 55.7932 15.3315 57.8016 13.61C59.81 11.8885 62.1532 11.0277 64.831 11.0277ZM60.5632 18.5234H67.3415C67.222 16.8736 66.2776 16.0488 64.5083 16.0488C62.739 16.0488 61.4239 16.8736 60.5632 18.5234Z" stroke="white" stroke-width="6" mask="url(#path-1-outside-1_3_17)"/>
<path d="M87.6562 11.0277C89.5929 11.0277 91.0753 11.7092 92.1034 13.072C93.1554 14.4109 93.4782 16.2998 93.0717 18.7386L91.1709 29.462H85.2174L86.9748 19.4917C87.1182 18.5354 86.9867 17.83 86.5803 17.3757C86.1738 16.8975 85.5641 16.6585 84.7512 16.6585C83.8426 16.6585 83.0775 16.9334 82.4559 17.4833C81.8581 18.0333 81.4636 18.8462 81.2723 19.9221V19.8862L79.5867 29.462H73.6332L76.7893 11.5298H82.7428L82.42 13.3589C83.7828 11.8048 85.5282 11.0277 87.6562 11.0277Z" stroke="white" stroke-width="6" mask="url(#path-1-outside-1_3_17)"/>
<path d="M103.514 29.9641C100.644 29.9641 98.4208 29.0197 96.8428 27.1308C95.2648 25.242 94.6909 22.9108 95.1213 20.1373C95.5517 17.4833 96.7711 15.3076 98.7795 13.61C100.788 11.8885 103.131 11.0277 105.809 11.0277C107.698 11.0277 109.288 11.4581 110.579 12.3189C111.894 13.1557 112.874 14.2914 113.52 15.726L108.104 18.5593C107.578 17.4116 106.646 16.8378 105.307 16.8378C104.255 16.8378 103.322 17.1725 102.509 17.842C101.72 18.5114 101.242 19.3841 101.075 20.4601C100.884 21.536 101.063 22.4207 101.613 23.114C102.187 23.8074 102.976 24.1541 103.98 24.1541C105.367 24.1541 106.478 23.5564 107.315 22.3609L112.049 25.3735C111.141 26.8798 109.933 28.0275 108.427 28.8165C106.921 29.5816 105.283 29.9641 103.514 29.9641Z" stroke="white" stroke-width="6" mask="url(#path-1-outside-1_3_17)"/>
<path d="M124.372 11.0277C127.073 11.0277 129.189 11.9483 130.72 13.7893C132.25 15.6064 132.776 17.83 132.298 20.4601C132.202 21.1774 131.999 21.9186 131.688 22.6837H119.386C119.721 24.1422 120.869 24.8714 122.829 24.8714C124.264 24.8714 125.447 24.441 126.38 23.5803L130.182 27.0591C128.101 28.9958 125.495 29.9641 122.363 29.9641C119.255 29.9641 116.912 29.0197 115.334 27.1308C113.78 25.242 113.23 22.9108 113.684 20.1373C114.114 17.5072 115.334 15.3315 117.342 13.61C119.351 11.8885 121.694 11.0277 124.372 11.0277ZM120.104 18.5234H126.882C126.762 16.8736 125.818 16.0488 124.049 16.0488C122.279 16.0488 120.964 16.8736 120.104 18.5234Z" stroke="white" stroke-width="6" mask="url(#path-1-outside-1_3_17)"/>
</svg>
